<svg width="280" height="64" viewBox="0 0 280 64" xmlns="http://www.w3.org/2000/svg" role="img" aria-label="Lessonaitor">
  <g transform="rotate(-30 32 32)">
    <rect x="6" y="28" width="8" height="8" rx="4" fill="#EC4899"/>
    <rect x="14" y="28" width="3" height="8" fill="#9CA3AF"/>
    <rect x="17" y="28" width="28" height="8" fill="#FCD34D"/>
    <path d="M 45 28 L 45 36 L 53 32 Z" fill="#D6A77A"/>
    <path d="M 50 30.5 L 50 33.5 L 53 32 Z" fill="#1F2937"/>
  </g>
  <path d="M 50 14 L 51.8 19.2 L 57 21 L 51.8 22.8 L 50 28 L 48.2 22.8 L 43 21 L 48.2 19.2 Z" fill="#7E6EE3"/>
  <path d="M 56 30 L 56.7 31.7 L 58.4 32.4 L 56.7 33.1 L 56 34.8 L 55.3 33.1 L 53.6 32.4 L 55.3 31.7 Z" fill="#7E6EE3" opacity="0.7"/>
  <text x="76" y="42" font-family="Nunito, system-ui, sans-serif" font-size="28" font-weight="700" fill="#1F2937">Lessonaitor</text>
</svg>
