<svg width="280" height="64" viewBox="0 0 280 64" xmlns="http://www.w3.org/2000/svg" role="img" aria-label="Lessonaitor">
  <!-- WandSparkles icon from Lucide, colored with the brand purple -->
  <g transform="translate(12 12) scale(1.667)" stroke="#7E6EE3" stroke-width="2" stroke-linecap="round" stroke-linejoin="round" fill="none">
    <path d="m21.64 3.64-1.28-1.28a1.21 1.21 0 0 0-1.72 0L2.36 18.64a1.21 1.21 0 0 0 0 1.72l1.28 1.28a1.2 1.2 0 0 0 1.72 0L21.64 5.36a1.2 1.2 0 0 0 0-1.72"/>
    <path d="m14 7 3 3"/>
    <path d="M5 6v4"/>
    <path d="M19 14v4"/>
    <path d="M10 2v2"/>
    <path d="M7 8H3"/>
    <path d="M21 16h-4"/>
    <path d="M11 3H9"/>
  </g>
  <!-- Wordmark -->
  <text x="68" y="42" font-family="Nunito, system-ui, sans-serif" font-size="28" font-weight="700" fill="#1F2937" letter-spacing="-0.5">Lessonaitor</text>
</svg>
